<svg id="Logotipo_IKUBERT_Nombre_lateral_derecho" data-name="Logotipo IKUBERT Nombre lateral derecho" xmlns="http://www.w3.org/2000/svg" xmlns:xlink="http://www.w3.org/1999/xlink" viewBox="0 0 982.09 284.91"><defs><style>.cls-1{fill:url(#Degradado_sin_nombre_177);}.cls-2{font-size:90.4px;fill:#1d1d1b;font-family:MyriadPro-Regular, Myriad Pro;}.cls-3{letter-spacing:0.01em;}.cls-4{letter-spacing:0em;}</style><linearGradient id="Degradado_sin_nombre_177" x1="-200.12" y1="455.91" x2="305.44" y2="455.91" gradientUnits="userSpaceOnUse"><stop offset="0" stop-color="#27348b"/><stop offset="0.2" stop-color="#2254a2"/><stop offset="0.38" stop-color="#1e69b2"/><stop offset="0.5" stop-color="#1d71b8"/><stop offset="0.66" stop-color="#1d6fb7"/><stop offset="0.72" stop-color="#1e68b2"/><stop offset="0.76" stop-color="#205da9"/><stop offset="0.79" stop-color="#234c9d"/><stop offset="0.82" stop-color="#27368d"/><stop offset="0.82" stop-color="#27348b"/></linearGradient></defs><path class="cls-1" d="M207.53,598.37H-105.75c-2.55-.35-3.75-2.26-5-4.23q-7-11.14-14.1-22.25-31.24-49-62.5-98.06-6.09-9.54-12.23-19a3.15,3.15,0,0,1,.2-3.79q18.66-27.64,37.32-55.3,21.8-32.25,43.61-64.49,5.23-7.74,10.38-15.54a4.44,4.44,0,0,1,4.12-2.22c60.07.19,120.15-.14,180.22.22,28.69.17,57.38,0,86.07,0,16.64,0,33.27.06,49.9,0a5.45,5.45,0,0,1,5.09,2.81q40.07,63,80.19,126c2.52,4,5.14,7.89,7.48,12a2.77,2.77,0,0,1,0,3c-.73,1.19-1.4,2.41-2.19,3.57-6.33,9.35-12.71,18.68-19,28q-34,50.4-68,100.8c-1,1.56-2.12,3.1-3.11,4.69C211.45,596.58,209.55,597.53,207.53,598.37Zm-103-224c.3.53.47.84.66,1.14q18.3,28.81,36.61,57.62,5.85,9.19,11.76,18.35a4,4,0,0,1,0,4.89c-.86,1.19-1.6,2.47-2.43,3.7l-33.76,50.05c-1.77,2.61-3.52,5.24-5.31,7.84-1.24,1.8-2.89,2.45-4.6,1.91-2.8-.9-3.55-3.77-1.68-6.55q19.63-29.08,39.29-58.17a1.93,1.93,0,0,0,.07-2.48c-3.38-5.27-6.7-10.59-10.07-15.87q-18.66-29.3-37.35-58.57-17.53-27.53-35-55.08a3.15,3.15,0,0,0-3.12-1.72c-1,.07-2,.05-3,.05H-28.63q-36.54,0-73.07,0a1.42,1.42,0,0,0-1.34.74q-8.05,12-16.13,23.94l-21.56,32q-24.84,36.78-49.7,73.55a2.23,2.23,0,0,0,0,2.82q34,53.31,68,106.66,9,14.08,17.85,28.24a2.07,2.07,0,0,0,2,1.12q19.52-.06,39,0H22.12l-.09-.11s0,.09.07.09h14a22.79,22.79,0,0,0-2.3-3.85C30.58,581.4,27.18,576.27,24,571a4.41,4.41,0,0,0-4.33-2.51c-4.37.22-8.74,0-13.12,0-8,0-16.07,0-24.11,0-23.32,0-46.64,0-70,.12-2.78,0-5-.5-6-3.39a1.83,1.83,0,0,0-.18-.3l-9.48-14.84q-31.38-49.23-62.8-98.44c-1.57-2.46-1.67-4.47,0-6.9,4.9-7,9.64-14.21,14.44-21.32q27.4-40.54,54.76-81.11a5.44,5.44,0,0,1,5-2.66q50.51.07,101,.06H48.27a4.63,4.63,0,0,1,4.25,2.33q27.54,43.38,55.12,86.72,6.85,10.77,13.76,21.49a4.25,4.25,0,0,1-.07,5.12Q105.4,479,89.51,502.58c-1.16,1.72-2.28,3.47-3.52,5.13a3.89,3.89,0,0,1-4.32,1.59A3.71,3.71,0,0,1,78.93,506,4.45,4.45,0,0,1,80,502.68q9.9-14.64,19.78-29.29c4.5-6.65,9-13.3,13.5-19.94a1.16,1.16,0,0,0,0-1.58c-.81-1.08-1.54-2.23-2.27-3.38l-38.2-60q-12.66-19.91-25.32-39.82a2.3,2.3,0,0,0-2.24-1.24c-9.15-.07-18.3.07-27.45.06-35.81-.05-71.63,0-107.45,0a1.91,1.91,0,0,0-1.81,1q-10,14.92-20.08,29.8l-46.1,68.31c-1.13,1.68-1.13,1.67,0,3.39q34.55,54.24,69.05,108.52a4.06,4.06,0,0,0,4,2.19c25.59-.07,51.18,0,76.76,0H16c.34,0,.79.18,1-.18s-.21-.65-.39-.93c-2.9-4.6-5.86-9.15-8.69-13.78A3.37,3.37,0,0,0,4.63,544q-38.38.07-76.77.07c-.43,0-.87,0-1.31,0A4.43,4.43,0,0,1-77,541.89c-1.31-2.19-2.63-4.38-4-6.53-6-9.39-12-18.76-18-28.15q-16.74-26.26-33.47-52.52c-1.29-2-1.52-3.8-.12-5.86,7.79-11.45,15.5-23,23.29-34.43C-99,399.32-89,384.1-78.61,369.09A5.07,5.07,0,0,1-74,366.57c3.9.06,7.8.05,11.7.05H32.63a3.49,3.49,0,0,1,3.07,1.74c.32.51.59,1,.92,1.55Q59.17,405,81.38,440.24c2.09,3.31,4.3,6.54,6.43,9.82,1.78,2.75,1.9,5.14.2,7.35-2.76,3.57-5.13,7.41-7.66,11.14-3,4.4-5.94,8.81-8.91,13.21a4.08,4.08,0,0,1-3.24,2.17,3.88,3.88,0,0,1-3.68-2,3.71,3.71,0,0,1,.26-4.19c2.29-3.46,4.62-6.9,6.94-10.34q4.25-6.31,8.5-12.61c.38-.56.74-1.05.19-1.81-1.9-2.62-3.48-5.45-5.22-8.18Q53,410,30.84,375.21a1.64,1.64,0,0,0-1.61-.87c-7.28,0-14.56,0-21.84,0q-39.58,0-79.16,0a1.89,1.89,0,0,0-1.81,1c-2.67,4-5.4,8-8.11,12q-21.21,31.49-42.46,63a2.27,2.27,0,0,0,0,2.9q26.09,40.89,52.1,81.83A2.15,2.15,0,0,0-70,536.17q22.63-.06,45.25,0c.76,0,1.51.07,2.26.05,5.41-.17,10.82,0,16.22.08l7.17,0c.59,0,.71-.23.46-.72-.13-.25-.3-.47-.45-.71q-25-39.28-50.08-78.58a4.22,4.22,0,0,1,.08-5.11Q-36.73,433-24.44,414.77-16.76,403.42-9.11,392a4,4,0,0,1,5.43-1.34c2,1.26,2.38,3.53,1,5.65-2.21,3.47-4.61,6.81-6.91,10.22Q-25,429.48-40.5,452.44a2.32,2.32,0,0,0,0,2.93Q1.93,521.92,44.26,588.53a3.73,3.73,0,0,0,3.66,2q69.18-.09,138.37,0h18.38a1.93,1.93,0,0,0,1.93-.8q14.31-21.33,28.7-42.62,24.42-36.19,48.86-72.38c4-5.89,7.94-11.78,11.95-17.66a1.77,1.77,0,0,0,0-2.26q-6.67-10.37-13.28-20.79Q258,395,233.24,356.08q-10.76-16.87-21.55-33.7c-.32-.5-.54-.94-1.33-.94q-26,.06-52.05,0H70.81c.29.53.47.87.68,1.2,3.08,4.85,6.2,9.68,9.23,14.56a3.24,3.24,0,0,0,3.1,1.74c36.37,0,72.74,0,109.12-.06a7,7,0,0,1,6.8,3.75c7.76,12.53,15.78,24.88,23.69,37.31q22.94,36,45.87,72a4.84,4.84,0,0,1-.09,6c-4.93,7.17-9.78,14.4-14.64,21.62Q245,493.75,235.5,507.91q-19.59,29-39.19,58.09a5.23,5.23,0,0,1-4.66,2.56h-16q-26.51,0-53,0-31.64,0-63.27.05a5.13,5.13,0,0,1-4.71-2.51c-1.55-2.47-3.09-4.94-4.66-7.4q-33.22-52.11-66.47-104.2a5.75,5.75,0,0,1,.07-7q14-20.61,27.91-41.29c1.29-1.92,2.58-3.84,4-5.7a3.79,3.79,0,0,1,6.29-.05c1,1.44.91,3.17-.34,5q-14.88,22-29.78,44.06a2.42,2.42,0,0,0,0,3.11Q21,498.73,50.32,544.88c3.17,5,6.4,9.94,9.54,14.94a1.46,1.46,0,0,0,1.45.86q52.35,0,104.7,0c7.72,0,15.44,0,23.16,0a2.25,2.25,0,0,0,2.13-1.15c2.57-3.9,5.2-7.76,7.81-11.63l44.28-65.64q8.81-13.06,17.65-26.09a2,2,0,0,0,0-2.62,9.38,9.38,0,0,1-.58-.91q-22.34-35-44.66-70.1-11-17.22-21.91-34.47a2.55,2.55,0,0,0-2.53-1.4c-5.13.07-10.26,0-15.39,0H86.81c.48.77.82,1.35,1.18,1.91,3.45,5.43,6.93,10.83,10.32,16.29a3.29,3.29,0,0,0,3.18,1.78q39.41,0,78.8,0h1.2a3.5,3.5,0,0,1,2.88,1.65c.51.76,1,1.53,1.48,2.3l39.2,61.65c4.2,6.6,8.4,13.21,12.67,19.76a4.59,4.59,0,0,1,0,5.72c-5.87,8.57-11.63,17.2-17.43,25.81q-19.61,29.12-39.21,58.22A4.91,4.91,0,0,1,177,544c-1.11,0-2.23,0-3.34,0l-49.9,0H74.17A9.4,9.4,0,0,1,73,544a4.07,4.07,0,0,1-3.18-1.87c-1.46-2.33-2.91-4.67-4.39-7L22.33,467.58q-3.31-5.2-6.57-10.44a4.09,4.09,0,0,1,0-4.74q8.67-12.87,17.38-25.7a3.77,3.77,0,0,1,4.74-1.42,3.82,3.82,0,0,1,2.29,4.18A5.2,5.2,0,0,1,39,431.81q-7.22,10.74-14.48,21.44a2.54,2.54,0,0,0-.09,3.24Q49.6,495.87,74.65,535.3a1.59,1.59,0,0,0,1.59.86q41.49,0,83,0l15,0a1.75,1.75,0,0,0,1.71-.77q21.75-32.35,43.57-64.68c3.1-4.59,6.18-9.21,9.34-13.77,1.18-1.7,1.32-2.37.22-4.09q-5.58-8.73-11.15-17.45-19.22-30.15-38.41-60.32a1.45,1.45,0,0,0-1.44-.75c-4.38,0-8.75,0-13.13,0H104.48Z" transform="translate(200.12 -313.45)"/><text class="cls-2" transform="translate(565.25 166.63) scale(1.31 1)">IKUBE<tspan class="cls-3" x="222.55" y="0">R</tspan><tspan class="cls-4" x="271.99" y="0">T</tspan></text></svg>