<svg id="Logo" xmlns="http://www.w3.org/2000/svg" xmlns:xlink="http://www.w3.org/1999/xlink" viewBox="0 0 401.5 223.83"><defs><style>.cls-1{fill:url(#Degradado_sin_nombre_177);}</style><linearGradient id="Degradado_sin_nombre_177" x1="96.89" y1="420.94" x2="498.39" y2="420.94" gradientUnits="userSpaceOnUse"><stop offset="0" stop-color="#27348b"/><stop offset="0.2" stop-color="#2254a2"/><stop offset="0.38" stop-color="#1e69b2"/><stop offset="0.5" stop-color="#1d71b8"/><stop offset="0.66" stop-color="#1d6fb7"/><stop offset="0.72" stop-color="#1e68b2"/><stop offset="0.76" stop-color="#205da9"/><stop offset="0.79" stop-color="#234c9d"/><stop offset="0.82" stop-color="#27368d"/><stop offset="0.82" stop-color="#27348b"/></linearGradient></defs><path class="cls-1" d="M420.63,532.86H171.83c-2-.27-3-1.77-4-3.32q-5.56-8.76-11.2-17.48Q131.86,473.54,107,435q-4.83-7.49-9.71-15a2.45,2.45,0,0,1,.16-3l29.64-43.44Q144.43,348.3,161.76,323q4.16-6.09,8.24-12.21a3.52,3.52,0,0,1,3.27-1.74c47.71.14,95.42-.12,143.13.17,22.78.13,45.56,0,68.35,0,13.21,0,26.42,0,39.63,0a4.35,4.35,0,0,1,4,2.21q31.82,49.5,63.68,99c2,3.12,4.09,6.19,5.94,9.41a2.14,2.14,0,0,1,0,2.39c-.58.93-1.12,1.9-1.74,2.8-5,7.35-10.1,14.68-15.11,22l-54,79.2c-.83,1.22-1.68,2.43-2.47,3.68A8,8,0,0,1,420.63,532.86Zm-81.85-176c.25.41.38.66.53.9L368.39,403q4.64,7.21,9.33,14.41a3.08,3.08,0,0,1,0,3.85c-.69.93-1.28,1.94-1.93,2.9l-26.82,39.32c-1.4,2.06-2.79,4.12-4.21,6.16a3.14,3.14,0,0,1-3.65,1.5c-2.23-.7-2.82-3-1.34-5.14q15.6-22.86,31.2-45.7a1.51,1.51,0,0,0,.06-1.95c-2.69-4.14-5.32-8.32-8-12.47q-14.83-23-29.67-46-13.92-21.63-27.81-43.27a2.5,2.5,0,0,0-2.48-1.35c-.79,0-1.58,0-2.37,0h-67.6q-29,0-58,0a1.12,1.12,0,0,0-1.06.58q-6.41,9.42-12.82,18.81l-17.12,25.12q-19.73,28.9-39.47,57.78a1.75,1.75,0,0,0,0,2.22q27,41.88,54,83.79,7.13,11.07,14.18,22.19a1.65,1.65,0,0,0,1.59.88q15.5,0,31,0h68.07l-.07-.09s0,.07.06.07h11.14a17.67,17.67,0,0,0-1.82-3c-2.59-4.09-5.29-8.12-7.78-12.27a3.53,3.53,0,0,0-3.44-2c-3.48.18-7,0-10.42,0-6.38,0-12.77,0-19.15,0-18.52,0-37,0-55.56.1-2.21,0-3.93-.4-4.74-2.66a1.23,1.23,0,0,0-.14-.25q-3.77-5.82-7.53-11.65Q149,456.27,124.05,417.61a4.27,4.27,0,0,1,0-5.42c3.9-5.53,7.65-11.16,11.47-16.75Q157.31,363.6,179,331.72a4.33,4.33,0,0,1,4-2.09q40.11.06,80.21.05h30.91a3.69,3.69,0,0,1,3.38,1.83q21.86,34.08,43.77,68.13,5.44,8.46,10.92,16.88a3.32,3.32,0,0,1-.05,4q-12.65,18.51-25.27,37.06c-.92,1.35-1.81,2.72-2.8,4a3.1,3.1,0,0,1-3.42,1.25,2.92,2.92,0,0,1-2.18-2.59,3.52,3.52,0,0,1,.84-2.62q7.86-11.49,15.71-23,5.35-7.85,10.72-15.67a.9.9,0,0,0,0-1.24c-.65-.85-1.22-1.75-1.8-2.65Q328.78,391.54,313.62,368q-10-15.63-20.11-31.28a1.84,1.84,0,0,0-1.78-1c-7.26-.05-14.53.06-21.8.05-28.44,0-56.88,0-85.32,0a1.54,1.54,0,0,0-1.45.79q-7.95,11.71-15.94,23.41l-36.61,53.67c-.9,1.32-.9,1.31,0,2.66q27.43,42.61,54.84,85.26a3.26,3.26,0,0,0,3.2,1.72q30.48-.09,61,0h18.95c.27,0,.63.14.78-.14s-.16-.51-.3-.74c-2.31-3.61-4.66-7.18-6.91-10.82a2.65,2.65,0,0,0-2.61-1.41q-30.48.06-61,.05c-.35,0-.7,0-1,0a3.49,3.49,0,0,1-2.82-1.67c-1-1.72-2.09-3.44-3.18-5.13-4.75-7.38-9.54-14.74-14.29-22.12Q163.9,440.62,150.61,420a3.73,3.73,0,0,1-.09-4.61c6.18-9,12.31-18,18.5-27,8.14-11.86,16.13-23.81,24.36-35.61a4.06,4.06,0,0,1,3.68-2c3.09,0,6.19,0,9.29,0h75.37a2.81,2.81,0,0,1,2.45,1.37c.25.4.47.82.72,1.22q17.91,27.54,35.56,55.24c1.66,2.6,3.41,5.14,5.1,7.72,1.42,2.16,1.51,4,.16,5.77-2.2,2.81-4.07,5.83-6.09,8.76-2.37,3.45-4.71,6.91-7.07,10.37A3.25,3.25,0,0,1,310,443a3.1,3.1,0,0,1-2.93-1.58,2.87,2.87,0,0,1,.21-3.28c1.82-2.72,3.67-5.42,5.51-8.13,2.25-3.3,4.51-6.6,6.75-9.91.3-.44.59-.82.15-1.42-1.5-2.06-2.76-4.28-4.14-6.42q-17.61-27.35-35.22-54.67a1.31,1.31,0,0,0-1.28-.69c-5.78,0-11.56,0-17.35,0q-31.43,0-62.86,0a1.5,1.5,0,0,0-1.44.77c-2.12,3.16-4.29,6.29-6.44,9.44q-16.84,24.74-33.72,49.46a1.78,1.78,0,0,0,0,2.29q20.72,32.12,41.37,64.28a1.72,1.72,0,0,0,1.66.9q18,0,35.94,0c.6,0,1.2.06,1.79,0,4.3-.13,8.59,0,12.89.07,1.89,0,3.79,0,5.68,0,.48,0,.57-.19.37-.57-.1-.19-.24-.37-.36-.56q-19.88-30.86-39.77-61.73a3.29,3.29,0,0,1,.07-4q9.79-14.28,19.56-28.6,6.1-8.92,12.18-17.87a3.17,3.17,0,0,1,4.31-1.06,3,3,0,0,1,.82,4.44c-1.75,2.73-3.65,5.36-5.48,8q-12.31,18-24.58,36.05a1.81,1.81,0,0,0,0,2.3Q257.35,472.8,291,525.13a3,3,0,0,0,2.9,1.56q54.94-.06,109.89,0h14.6a1.54,1.54,0,0,0,1.53-.63q11.37-16.77,22.79-33.49l38.8-56.85c3.16-4.63,6.31-9.27,9.49-13.88a1.36,1.36,0,0,0,0-1.77q-5.3-8.16-10.54-16.34L441,342.51q-8.54-13.25-17.11-26.47c-.25-.39-.43-.74-1.06-.73q-20.65,0-41.33,0H312.05c.23.41.37.68.54.94,2.45,3.81,4.92,7.6,7.33,11.44a2.59,2.59,0,0,0,2.46,1.36c28.88,0,57.77,0,86.66,0a5.52,5.52,0,0,1,5.4,3c6.16,9.83,12.53,19.54,18.81,29.3q18.21,28.31,36.43,56.6a3.76,3.76,0,0,1-.07,4.68c-3.92,5.63-7.76,11.32-11.63,17l-15.14,22.24q-15.57,22.83-31.12,45.64a4.17,4.17,0,0,1-3.71,2h-12.7l-42.1,0-50.25,0a4.11,4.11,0,0,1-3.74-2c-1.23-1.94-2.45-3.88-3.69-5.81q-26.38-40.93-52.79-81.87a4.47,4.47,0,0,1,0-5.49Q253.9,398.13,265,381.88c1-1.51,2.06-3,3.15-4.48a3,3,0,0,1,5,0c.82,1.13.73,2.49-.26,3.94Q261,398.63,249.17,415.92a1.88,1.88,0,0,0,0,2.44q23.34,36.22,46.62,72.48c2.52,3.92,5.08,7.81,7.57,11.74a1.19,1.19,0,0,0,1.16.68q41.57,0,83.14,0c6.13,0,12.26,0,18.39,0a1.79,1.79,0,0,0,1.69-.9c2-3.06,4.13-6.1,6.21-9.14l35.16-51.57q7-10.26,14-20.5a1.52,1.52,0,0,0,0-2c-.18-.22-.31-.48-.47-.71l-35.46-55.08q-8.71-13.53-17.4-27.08a2,2,0,0,0-2-1.1c-4.07.05-8.15,0-12.22,0H324.76l.93,1.49c2.74,4.27,5.5,8.51,8.2,12.8a2.61,2.61,0,0,0,2.53,1.4q31.29,0,62.57,0c.32,0,.64,0,.95,0a2.78,2.78,0,0,1,2.3,1.29c.4.6.78,1.2,1.17,1.81l31.13,48.43c3.34,5.19,6.67,10.38,10.06,15.53a3.57,3.57,0,0,1,0,4.49c-4.65,6.73-9.23,13.51-13.84,20.28q-15.57,22.86-31.13,45.73a3.94,3.94,0,0,1-3.26,1.8c-.88,0-1.77,0-2.65,0l-39.64,0H314.72a7.48,7.48,0,0,1-1,0,3.22,3.22,0,0,1-2.52-1.47c-1.16-1.83-2.32-3.67-3.49-5.49q-17.1-26.55-34.21-53.08-2.64-4.08-5.22-8.2a3.2,3.2,0,0,1,0-3.73q6.89-10.1,13.8-20.19a3.07,3.07,0,0,1,5.59,2.18,4.13,4.13,0,0,1-.9,1.84c-3.82,5.62-7.64,11.25-11.5,16.84a2,2,0,0,0-.07,2.55q20,30.93,39.84,61.91a1.29,1.29,0,0,0,1.27.68h65.9l11.93,0a1.37,1.37,0,0,0,1.35-.6q17.28-25.42,34.61-50.81c2.46-3.61,4.9-7.24,7.41-10.82.94-1.34,1.05-1.86.18-3.21q-4.42-6.85-8.86-13.72-15.25-23.68-30.5-47.38a1.16,1.16,0,0,0-1.14-.59c-3.48,0-6.95,0-10.43,0h-48Z" transform="translate(-96.89 -309.03)"/></svg>