<svg id="Capa_7" data-name="Capa 7" xmlns="http://www.w3.org/2000/svg" xmlns:xlink="http://www.w3.org/1999/xlink" viewBox="0 0 885.12 284.91"><defs><style>.cls-1{fill:url(#Degradado_sin_nombre_177);}.cls-2{fill:#1d1d1b;}</style><linearGradient id="Degradado_sin_nombre_177" x1="-207.92" y1="378.63" x2="297.64" y2="378.63" gradientUnits="userSpaceOnUse"><stop offset="0" stop-color="#27348b"/><stop offset="0.2" stop-color="#2254a2"/><stop offset="0.38" stop-color="#1e69b2"/><stop offset="0.5" stop-color="#1d71b8"/><stop offset="0.66" stop-color="#1d6fb7"/><stop offset="0.72" stop-color="#1e68b2"/><stop offset="0.76" stop-color="#205da9"/><stop offset="0.79" stop-color="#234c9d"/><stop offset="0.82" stop-color="#27368d"/><stop offset="0.82" stop-color="#27348b"/></linearGradient></defs><path class="cls-1" d="M199.73,521.08H-113.55c-2.56-.35-3.76-2.25-5-4.22q-7-11.16-14.1-22.26-31.24-49-62.5-98.05-6.09-9.54-12.23-19.05a3.15,3.15,0,0,1,.2-3.79q18.66-27.65,37.33-55.29,21.79-32.25,43.61-64.5,5.22-7.74,10.37-15.53a4.43,4.43,0,0,1,4.12-2.22c60.08.18,120.15-.15,180.23.21,28.69.18,57.38,0,86.07,0,16.63,0,33.26.05,49.9,0a5.43,5.43,0,0,1,5.09,2.8q40.07,63,80.18,126c2.53,4,5.15,7.89,7.48,12a2.74,2.74,0,0,1,0,3c-.73,1.19-1.4,2.42-2.18,3.57-6.34,9.36-12.72,18.68-19,28.05q-34,50.38-68,100.8c-1,1.55-2.11,3.1-3.11,4.69C203.65,519.29,201.74,520.25,199.73,521.08Zm-103.06-224c.3.53.47.85.66,1.15q18.3,28.8,36.61,57.61,5.85,9.19,11.76,18.35a4,4,0,0,1,0,4.89c-.87,1.2-1.61,2.48-2.44,3.7q-16.87,25-33.76,50.05c-1.76,2.62-3.51,5.25-5.3,7.84-1.24,1.8-2.89,2.46-4.6,1.91-2.8-.89-3.55-3.77-1.68-6.54q19.62-29.1,39.28-58.17a2,2,0,0,0,.08-2.48c-3.39-5.27-6.7-10.59-10.07-15.88q-18.67-29.28-37.36-58.57-17.53-27.51-35-55.08a3.15,3.15,0,0,0-3.12-1.71c-1,.07-2,.05-3,.05H-36.44q-36.54,0-73.07,0a1.41,1.41,0,0,0-1.33.75L-127,268.84q-10.78,16-21.56,32-24.84,36.8-49.7,73.55a2.23,2.23,0,0,0,0,2.83q34,53.31,68,106.65,9,14.1,17.85,28.25a2.06,2.06,0,0,0,2,1.11q19.52,0,39,0H14.31l-.09-.11s0,.09.08.09h14a22.31,22.31,0,0,0-2.3-3.84c-3.26-5.22-6.66-10.35-9.8-15.63a4.39,4.39,0,0,0-4.33-2.51c-4.37.22-8.74,0-13.11,0-8,0-16.08,0-24.12,0-23.32,0-46.64,0-70,.12-2.78,0-4.95-.51-6-3.39a1.44,1.44,0,0,0-.19-.31l-9.48-14.84q-31.38-49.23-62.8-98.44c-1.57-2.45-1.66-4.46,0-6.9,4.9-7,9.63-14.21,14.44-21.32q27.39-40.55,54.76-81.11a5.45,5.45,0,0,1,5-2.66q50.49.08,101,.07H40.47a4.64,4.64,0,0,1,4.25,2.33q27.53,43.38,55.12,86.73,6.84,10.75,13.75,21.48a4.25,4.25,0,0,1-.07,5.13Q97.59,401.7,81.71,425.29c-1.16,1.73-2.29,3.47-3.53,5.14A3.9,3.9,0,0,1,73.87,432a3.74,3.74,0,0,1-2.75-3.3,4.53,4.53,0,0,1,1.07-3.33L92,396.11q6.73-10,13.49-19.94a1.15,1.15,0,0,0,0-1.58c-.81-1.09-1.54-2.24-2.27-3.38L65,311.19q-12.67-19.9-25.33-39.82a2.31,2.31,0,0,0-2.24-1.25c-9.15-.06-18.3.07-27.45.06-35.81-.05-71.63,0-107.44,0a1.93,1.93,0,0,0-1.82,1q-10,14.93-20.08,29.8l-46.09,68.32c-1.14,1.67-1.14,1.66,0,3.39Q-131,427-96.45,481.24a4.1,4.1,0,0,0,4,2.19q38.37-.1,76.75-.05H8.2c.34,0,.79.18,1-.18s-.2-.64-.39-.93C5.91,477.67,3,473.11.11,468.48a3.36,3.36,0,0,0-3.29-1.79q-38.37.07-76.76.06c-.44,0-.88,0-1.31,0a4.36,4.36,0,0,1-3.54-2.13c-1.32-2.19-2.64-4.37-4-6.52q-9-14.1-18-28.16-16.74-26.25-33.48-52.51c-1.28-2-1.51-3.81-.12-5.86,7.79-11.46,15.51-23,23.3-34.43,10.25-15.09,20.32-30.3,30.68-45.32a5.05,5.05,0,0,1,4.63-2.51c3.89,0,7.79,0,11.69,0H24.82a3.53,3.53,0,0,1,3.08,1.75c.31.51.59,1,.91,1.54Q51.36,327.69,73.58,363c2.09,3.31,4.29,6.54,6.42,9.82,1.79,2.75,1.9,5.15.2,7.35-2.76,3.58-5.12,7.42-7.66,11.15q-4.47,6.59-8.9,13.21a4.09,4.09,0,0,1-3.24,2.17,3.89,3.89,0,0,1-3.69-2,3.7,3.7,0,0,1,.26-4.18q3.45-5.19,6.94-10.34,4.26-6.31,8.51-12.62c.37-.56.74-1,.18-1.81-1.9-2.62-3.48-5.44-5.22-8.17Q45.23,332.72,23,297.93a1.63,1.63,0,0,0-1.61-.87c-7.28,0-14.57,0-21.85,0q-39.57,0-79.15,0a1.9,1.9,0,0,0-1.82,1c-2.67,4-5.4,8-8.1,12q-21.23,31.49-42.47,63a2.28,2.28,0,0,0,0,2.91q26.08,40.89,52.1,81.83a2.14,2.14,0,0,0,2.09,1.14q22.62-.06,45.24,0c.76,0,1.51.08,2.27.06,5.41-.18,10.81,0,16.22.08,2.39,0,4.77,0,7.16,0,.6,0,.71-.24.46-.73-.13-.24-.3-.47-.45-.7Q-31.92,418.3-57,379a4.23,4.23,0,0,1,.09-5.12q12.33-18.19,24.63-36.41,7.68-11.37,15.33-22.74a4,4,0,0,1,5.43-1.35,3.87,3.87,0,0,1,1,5.65c-2.21,3.47-4.61,6.82-6.91,10.22q-15.5,22.94-30.94,45.88a2.31,2.31,0,0,0,0,2.93q42.44,66.56,84.78,133.17a3.72,3.72,0,0,0,3.66,2q69.18-.08,138.36,0h18.39a1.91,1.91,0,0,0,1.92-.8Q213.12,491,227.5,469.76l48.85-72.37q6-8.83,11.95-17.66a1.75,1.75,0,0,0,0-2.26c-4.45-6.91-8.85-13.86-13.27-20.79l-49.61-77.89q-10.76-16.86-21.55-33.7c-.31-.49-.53-.93-1.33-.93q-26,.06-52.05,0H63c.3.52.47.87.68,1.19,3.08,4.85,6.21,9.68,9.24,14.57A3.25,3.25,0,0,0,76,261.68c36.37,0,72.75,0,109.12-.05a7,7,0,0,1,6.8,3.75c7.76,12.52,15.78,24.88,23.69,37.31q22.94,36,45.87,72a4.84,4.84,0,0,1-.08,6c-4.94,7.17-9.78,14.41-14.65,21.62q-9.54,14.16-19.07,28.32-19.59,29.06-39.18,58.09a5.22,5.22,0,0,1-4.67,2.56h-16q-26.51,0-53,0-31.65,0-63.28,0a5.14,5.14,0,0,1-4.71-2.5c-1.54-2.47-3.09-4.95-4.65-7.4Q9,429.27-24.27,377.17a5.73,5.73,0,0,1,.06-7q14-20.61,27.91-41.28c1.3-1.92,2.59-3.85,4-5.7a3.78,3.78,0,0,1,6.28-.05c1,1.44.91,3.17-.34,5q-14.88,22.05-29.78,44.07a2.42,2.42,0,0,0,0,3.11Q13.2,421.45,42.51,467.6c3.18,5,6.4,9.93,9.54,14.94a1.48,1.48,0,0,0,1.46.86q52.34,0,104.69,0c7.72,0,15.44,0,23.16,0a2.25,2.25,0,0,0,2.13-1.14c2.57-3.9,5.2-7.77,7.81-11.64L235.58,405q8.82-13.05,17.66-26.09a2,2,0,0,0,0-2.62,10.61,10.61,0,0,1-.58-.9L208,305.26c-7.31-11.48-14.65-22.95-21.91-34.46a2.52,2.52,0,0,0-2.52-1.4c-5.13.06-10.27,0-15.4,0H79l1.17,1.91c3.45,5.42,6.93,10.83,10.32,16.29a3.35,3.35,0,0,0,3.19,1.78q39.39-.06,78.79,0c.4,0,.8,0,1.2,0a3.47,3.47,0,0,1,2.89,1.65c.5.76,1,1.53,1.48,2.29q19.59,30.82,39.19,61.66c4.2,6.6,8.4,13.2,12.67,19.76a4.59,4.59,0,0,1,0,5.72c-5.87,8.56-11.63,17.2-17.43,25.81q-19.61,29.1-39.21,58.22a4.92,4.92,0,0,1-4.1,2.28c-1.11.05-2.22,0-3.34,0l-49.9,0H66.36a11.75,11.75,0,0,1-1.19,0A4.06,4.06,0,0,1,62,464.84c-1.46-2.33-2.92-4.67-4.4-7L14.52,390.29Q11.21,385.1,8,379.85a4.09,4.09,0,0,1,0-4.74q8.67-12.86,17.38-25.7a3.86,3.86,0,0,1,7,2.77,5.2,5.2,0,0,1-1.12,2.34c-4.82,7.16-9.62,14.32-14.49,21.44a2.55,2.55,0,0,0-.09,3.25Q41.79,418.59,66.84,458a1.61,1.61,0,0,0,1.59.87q41.49,0,83,0c5,0,10,0,15,0a1.75,1.75,0,0,0,1.71-.77q21.75-32.36,43.57-64.67c3.1-4.6,6.18-9.21,9.34-13.77,1.18-1.7,1.32-2.37.22-4.09q-5.57-8.73-11.15-17.46Q190.91,328,171.71,297.82a1.47,1.47,0,0,0-1.44-.76c-4.37,0-8.75,0-13.13,0H96.67Z" transform="translate(207.92 -236.17)"/><path class="cls-2" d="M352,351.26v50.19h-8.47V351.26Z" transform="translate(207.92 -236.17)"/><path class="cls-2" d="M366.74,351.26h8.46v24.2h.29c1.75-1.94,3.5-3.72,5.16-5.36l20-18.84h10.51l-23.73,21.3L413,401.45H403L381.43,376.8l-6.23,5.51v19.14h-8.46Z" transform="translate(207.92 -236.17)"/><path class="cls-2" d="M427.92,351.26V381c0,11.25,6.51,16,15.27,16,9.72,0,15.95-4.92,15.95-16V351.26h8.56v29.27c0,15.41-10.61,21.74-24.81,21.74-13.42,0-23.53-5.88-23.53-21.45V351.26Z" transform="translate(207.92 -236.17)"/><path class="cls-2" d="M482.38,351.93a105.86,105.86,0,0,1,15.47-1.05c8.46,0,13.91,1.12,18,3.65a9.87,9.87,0,0,1,5.45,8.87c0,4.84-4.18,9.08-11.09,11v.15c6.22,1.19,13.52,5.14,13.52,12.58,0,4.32-2.24,7.6-5.55,10.06-4.57,3.2-12,4.69-22.66,4.69-5.83,0-10.31-.3-13.13-.59Zm8.46,20.55h7.69c9,0,14.2-3.57,14.2-8.41,0-5.89-5.84-8.2-14.4-8.2a47.53,47.53,0,0,0-7.49.45Zm0,24.06a59.65,59.65,0,0,0,7.1.3c8.76,0,16.83-2.46,16.83-9.76,0-6.85-7.68-9.68-16.92-9.68h-7Z" transform="translate(207.92 -236.17)"/><path class="cls-2" d="M569,377.92H543.56V396H572v5.43H535.1V351.26h35.4v5.43H543.56v15.87H569Z" transform="translate(207.92 -236.17)"/><path class="cls-2" d="M583,351.93a114.45,114.45,0,0,1,16.24-1.05c9,0,14.88,1.27,19,4.1a11.29,11.29,0,0,1,5.15,9.53c0,6.63-5.44,11-12.35,12.81v.23c5.06,1.34,8.07,4.91,9.63,10.13,2.14,7,3.7,11.84,5.06,13.77h-8.76c-1.06-1.41-2.52-5.73-4.37-12-1.95-6.92-5.45-9.53-13.13-9.75h-8v21.74H583Zm8.46,22.86h8.66c9,0,14.78-3.8,14.78-9.53,0-6.48-6.13-9.31-15.07-9.39a44.81,44.81,0,0,0-8.37.6Z" transform="translate(207.92 -236.17)"/><path class="cls-2" d="M648.6,356.77H628.66v-5.51H677.2v5.51h-20v44.68H648.6Z" transform="translate(207.92 -236.17)"/></svg>