<svg id="LOGO_Y_TEXTO" data-name="LOGO Y TEXTO" xmlns="http://www.w3.org/2000/svg" xmlns:xlink="http://www.w3.org/1999/xlink" viewBox="0 0 505.56 388.17"><defs><style>.cls-1{fill:url(#Degradado_sin_nombre_177);}.cls-2{font-size:74.47px;fill:#1d1d1b;font-family:MyriadPro-Regular, Myriad Pro;}.cls-3{letter-spacing:0.01em;}</style><linearGradient id="Degradado_sin_nombre_177" x1="44.86" y1="315.58" x2="550.42" y2="315.58" gradientUnits="userSpaceOnUse"><stop offset="0" stop-color="#27348b"/><stop offset="0.2" stop-color="#2254a2"/><stop offset="0.38" stop-color="#1e69b2"/><stop offset="0.5" stop-color="#1d71b8"/><stop offset="0.66" stop-color="#1d6fb7"/><stop offset="0.72" stop-color="#1e68b2"/><stop offset="0.76" stop-color="#205da9"/><stop offset="0.79" stop-color="#234c9d"/><stop offset="0.82" stop-color="#27368d"/><stop offset="0.82" stop-color="#27348b"/></linearGradient></defs><path class="cls-1" d="M452.51,458H139.23c-2.56-.35-3.76-2.26-5-4.23-4.66-7.43-9.38-14.84-14.09-22.25q-31.24-49-62.51-98.06-6.09-9.54-12.23-19a3.15,3.15,0,0,1,.2-3.79Q64.27,283,82.93,255.38q21.79-32.26,43.61-64.5,5.22-7.74,10.37-15.54a4.42,4.42,0,0,1,4.12-2.21c60.08.18,120.15-.15,180.23.21,28.69.18,57.38,0,86.07,0,16.63,0,33.26.06,49.9,0a5.43,5.43,0,0,1,5.09,2.8q40.07,63,80.18,126c2.53,4,5.15,7.89,7.48,12a2.75,2.75,0,0,1,0,3c-.73,1.19-1.4,2.42-2.18,3.57-6.34,9.36-12.72,18.68-19,28q-34,50.4-68,100.81c-1.05,1.55-2.11,3.09-3.11,4.68C456.43,456.25,454.52,457.21,452.51,458ZM349.45,234c.3.53.47.85.66,1.15q18.3,28.8,36.61,57.61,5.85,9.19,11.76,18.35a3.94,3.94,0,0,1,0,4.89c-.87,1.19-1.61,2.48-2.44,3.7q-16.87,25-33.76,50c-1.76,2.62-3.51,5.24-5.3,7.84-1.24,1.8-2.89,2.45-4.6,1.91-2.8-.89-3.55-3.77-1.68-6.54q19.62-29.1,39.28-58.17a2,2,0,0,0,.08-2.49c-3.39-5.27-6.7-10.59-10.07-15.87q-18.68-29.29-37.35-58.57-17.55-27.52-35-55.08a3.14,3.14,0,0,0-3.12-1.72c-1,.07-2,0-3,0H216.34q-36.53,0-73.07,0a1.4,1.4,0,0,0-1.33.75q-8.06,12-16.14,23.93-10.78,16-21.56,32-24.84,36.78-49.7,73.55a2.22,2.22,0,0,0,0,2.82q34,53.31,68,106.66,9,14.08,17.85,28.24a2.07,2.07,0,0,0,2,1.12q19.52,0,39,0h85.71L267,450s.05.09.08.09h14a22.79,22.79,0,0,0-2.3-3.85c-3.26-5.21-6.66-10.34-9.8-15.62a4.42,4.42,0,0,0-4.33-2.52c-4.37.23-8.74,0-13.11,0-8,.05-16.08,0-24.12,0-23.32,0-46.64,0-70,.12-2.78,0-5-.5-6-3.38a1.44,1.44,0,0,0-.19-.31l-9.48-14.84q-31.38-49.23-62.8-98.44c-1.57-2.46-1.66-4.47,0-6.9,4.9-7,9.63-14.21,14.44-21.32q27.39-40.55,54.76-81.11a5.45,5.45,0,0,1,5-2.66q50.49.08,101,.06h38.92a4.64,4.64,0,0,1,4.25,2.33q27.53,43.38,55.12,86.72,6.84,10.77,13.75,21.49a4.25,4.25,0,0,1-.07,5.13q-15.93,23.57-31.81,47.17c-1.16,1.72-2.29,3.47-3.53,5.13a3.89,3.89,0,0,1-4.31,1.6,3.74,3.74,0,0,1-2.75-3.3,4.52,4.52,0,0,1,1.07-3.33l19.78-29.28q6.74-10,13.49-19.94a1.15,1.15,0,0,0,0-1.58c-.81-1.09-1.54-2.24-2.27-3.38l-38.19-60q-12.67-19.9-25.33-39.82a2.3,2.3,0,0,0-2.24-1.24c-9.15-.07-18.3.07-27.45.06-35.81,0-71.63,0-107.44,0a1.93,1.93,0,0,0-1.82,1q-10,14.93-20.08,29.8L87.32,306.28c-1.14,1.68-1.14,1.67,0,3.39q34.55,54.25,69.05,108.53a4.08,4.08,0,0,0,4,2.18c25.58-.07,51.17,0,76.76,0H261c.34,0,.79.18,1-.18s-.2-.65-.38-.93c-2.9-4.59-5.86-9.15-8.7-13.78a3.38,3.38,0,0,0-3.29-1.8q-38.37.09-76.76.07c-.44,0-.88,0-1.31,0a4.36,4.36,0,0,1-3.54-2.13c-1.32-2.19-2.64-4.38-4-6.53q-9-14.08-18-28.15-16.74-26.25-33.48-52.52c-1.28-2-1.51-3.8-.11-5.85,7.79-11.46,15.5-23,23.29-34.43C145.93,259,156,243.77,166.36,228.76a5.05,5.05,0,0,1,4.63-2.51c3.9.05,7.8.05,11.69.05h94c.32,0,.64,0,1,0a3.52,3.52,0,0,1,3.08,1.74c.31.51.59,1.05.91,1.55q22.55,35.05,44.77,70.32c2.09,3.31,4.3,6.54,6.42,9.82,1.79,2.75,1.9,5.14.2,7.35-2.76,3.57-5.12,7.42-7.66,11.15q-4.47,6.58-8.9,13.21a4.12,4.12,0,0,1-3.24,2.17,3.91,3.91,0,0,1-3.69-2,3.72,3.72,0,0,1,.26-4.19c2.3-3.46,4.63-6.89,6.94-10.34q4.26-6.3,8.51-12.61c.37-.56.74-1,.18-1.81-1.89-2.62-3.48-5.45-5.22-8.17q-22.16-34.8-44.34-69.6a1.64,1.64,0,0,0-1.61-.86c-7.28,0-14.56,0-21.85,0q-39.57,0-79.15,0a1.9,1.9,0,0,0-1.82,1c-2.67,4-5.4,8-8.1,12q-21.22,31.49-42.47,63a2.27,2.27,0,0,0,0,2.9q26.08,40.9,52.1,81.84a2.12,2.12,0,0,0,2.09,1.13q22.62,0,45.25,0c.75,0,1.51.08,2.26.05,5.41-.17,10.81,0,16.22.08l7.16,0c.6,0,.71-.23.46-.72-.13-.25-.3-.47-.45-.71q-25-39.29-50.08-78.57a4.23,4.23,0,0,1,.09-5.12q12.33-18.19,24.63-36.41,7.68-11.37,15.33-22.75a4,4,0,0,1,5.43-1.34c2,1.26,2.38,3.54,1,5.65-2.21,3.47-4.61,6.81-6.91,10.22q-15.49,22.92-30.94,45.88a2.31,2.31,0,0,0,0,2.93Q246.9,381.6,289.24,448.2a3.72,3.72,0,0,0,3.66,2q69.18-.07,138.36,0h18.39a1.92,1.92,0,0,0,1.92-.81Q465.9,428,480.28,406.72q24.42-36.2,48.86-72.37,6-8.84,11.94-17.66a1.77,1.77,0,0,0,0-2.26c-4.46-6.92-8.86-13.86-13.28-20.79q-24.81-39-49.61-77.89-10.75-16.87-21.55-33.7c-.31-.5-.53-.94-1.33-.93q-26,0-52.05,0h-87.5c.3.52.47.86.68,1.19,3.08,4.85,6.21,9.68,9.24,14.56a3.24,3.24,0,0,0,3.09,1.74c36.37,0,72.75,0,109.12-.06a7,7,0,0,1,6.8,3.76c7.76,12.52,15.78,24.88,23.69,37.3q22.94,36,45.87,72a4.84,4.84,0,0,1-.08,6c-4.94,7.17-9.78,14.4-14.65,21.62q-9.54,14.16-19.07,28.32-19.59,29-39.18,58.09a5.26,5.26,0,0,1-4.67,2.56h-16q-26.49,0-53,0-31.65,0-63.28,0a5.15,5.15,0,0,1-4.71-2.51q-2.31-3.71-4.65-7.39-33.23-52.11-66.47-104.21a5.73,5.73,0,0,1,.06-7q14-20.61,27.91-41.29c1.3-1.91,2.59-3.84,4-5.7a3.78,3.78,0,0,1,6.28,0c1,1.45.91,3.17-.34,5q-14.88,22-29.78,44.07a2.4,2.4,0,0,0,0,3.1Q266,358.4,295.3,404.56c3.17,5,6.39,9.93,9.53,14.94a1.5,1.5,0,0,0,1.46.86q52.33,0,104.69,0c7.72,0,15.44,0,23.16,0a2.24,2.24,0,0,0,2.13-1.15c2.57-3.89,5.2-7.76,7.81-11.63l44.28-65.64q8.82-13.05,17.66-26.09a2,2,0,0,0,0-2.62,10.61,10.61,0,0,1-.58-.9l-44.66-70.11q-11-17.22-21.91-34.47a2.54,2.54,0,0,0-2.52-1.4c-5.13.07-10.27,0-15.4,0H331.79c.47.76.82,1.34,1.18,1.9,3.44,5.43,6.92,10.83,10.31,16.3a3.35,3.35,0,0,0,3.19,1.78q39.39-.06,78.8,0c.39,0,.79,0,1.19,0a3.49,3.49,0,0,1,2.89,1.64c.5.76,1,1.53,1.48,2.3Q450.42,261.08,470,291.9c4.2,6.61,8.4,13.21,12.67,19.77a4.57,4.57,0,0,1,0,5.71C476.8,326,471,334.59,465.24,343.2L426,401.41a4.89,4.89,0,0,1-4.1,2.29c-1.11.05-2.22,0-3.34,0l-49.9,0q-24.78,0-49.55,0a9.47,9.47,0,0,1-1.19,0,4,4,0,0,1-3.17-1.87c-1.46-2.33-2.92-4.67-4.4-7Q288.85,361,267.3,327.25,264,322,260.73,316.81a4.1,4.1,0,0,1,0-4.74q8.67-12.87,17.38-25.7a3.86,3.86,0,0,1,7,2.76,5.19,5.19,0,0,1-1.12,2.35c-4.82,7.16-9.62,14.32-14.49,21.44a2.55,2.55,0,0,0-.09,3.24q25.13,39.39,50.18,78.81a1.61,1.61,0,0,0,1.59.87q41.49,0,83,0c5,0,10,0,15,0a1.75,1.75,0,0,0,1.71-.77q21.76-32.35,43.57-64.67c3.1-4.6,6.18-9.22,9.34-13.77,1.18-1.71,1.32-2.38.23-4.09q-5.58-8.73-11.16-17.46-19.22-30.15-38.41-60.32a1.45,1.45,0,0,0-1.43-.75c-4.38,0-8.76,0-13.14,0H349.45Z" transform="translate(-44.86 -173.13)"/><text class="cls-2" transform="translate(82.41 369.55) scale(1.31 1)">IKUBE<tspan class="cls-3" x="183.34" y="0">R</tspan><tspan x="224.08" y="0">T</tspan></text></svg>